<svg width="32" height="32" viewBox="0 0 32 32" fill="none" xmlns="http://www.w3.org/2000/svg">
    <symbol id="menu">
        <path d="M7 9H25V11H7V9Z" />
        <path d="M7 15H22.3V17H7V15Z" />
        <path d="M7 21H25V23H7V21Z" />
    </symbol>

    <symbol id="topic">
        <path d="M9 7H23V9H11V25H9V7Z" />
        <path d="M5 3H18V5H7V20H5V3Z" />
        <path fill-rule="evenodd" clip-rule="evenodd" d="M25 13H15V27H25V13ZM13 11V29H27V11H13Z" />
    </symbol>

    <symbol id="download">
        <path fill-rule="evenodd" clip-rule="evenodd" d="M10.9217 22.0145H13.8043V23.9362H9V6H17.9957L22.4521 9.71371V14.0072H20.5304V10.6138L17.2999 7.92174H10.9217V22.0145Z" />
        <path fill-rule="evenodd" clip-rule="evenodd" d="M22.5798 24.2704L25.6411 21.2091L27 22.5679L21.6422 27.9257L16.2845 22.5679L17.6433 21.2091L20.658 24.2238V25.5376H22.5798V24.2704ZM22.5798 24.2704L21.6422 25.208L20.658 24.2238V17.2101H22.5798V24.2704Z" />
        <path d="M20.658 25.5376H22.5798V24.2704L21.6422 25.208L20.658 24.2238V25.5376Z" />
    </symbol>

    <symbol id="read">
        <path fill-rule="evenodd" clip-rule="evenodd" d="M25 9H7V22H25V9ZM5 7V24H27V7H5Z" />
        <path d="M15 7H17V28H15V7Z" />
    </symbol>

    <symbol id="play">
        <path fill-rule="evenodd" clip-rule="evenodd" d="M26 16L9.5 4.7417L9.5 27.2584L26 16ZM22.4515 16L11.5 8.52755L11.5 23.4725L22.4515 16Z"/>
    </symbol>

    <symbol id="right">
        <path d="M13.364 9.41427L14.7782 8.00006L22.5563 15.7782L21.1421 17.1924L13.364 9.41427Z" />
        <path d="M21.1421 14.364L22.5563 15.7782L14.7782 23.5564L13.364 22.1422L21.1421 14.364Z" />
    </symbol>

    <symbol id="bookmark">
        <path fill-rule="evenodd" clip-rule="evenodd" d="M16 21.2L22 26V8H10V26L16 21.2ZM11.8 22.2549L16 18.8949L20.2 22.2549V9.8H11.8V22.2549Z" />
    </symbol>

    <symbol id="bookmark-add">
        <path d="M11.8 22.2548V9.79994H15V7.99994H10V25.9999L16 21.1999L22 25.9999V14.9999H20.2V22.2548L16 18.8948L11.8 22.2548Z" />
        <path d="M17 8H25V10H17V8Z" />
        <path d="M20 5H22V13H20V5Z" />
    </symbol>

    <symbol id="bookmark-full">
        <path fill-rule="evenodd" clip-rule="evenodd" d="M16 21.2L22 26V8H10V26L16 21.2Z" />
    </symbol>

    <symbol id="share">
        <path d="M18.5714 12.8571V14.5714H21.2857V23.4286H10.7143V14.5714H13.4286V12.8571H9V25.1429H23V12.8571H18.5714Z" />
        <path d="M15.1429 9.28125V19.7143H16.8571V9.28125L19.0301 11.4542L20.2422 10.2422L16 6L11.7578 10.2422L12.9699 11.4542L15.1429 9.28125Z" />
    </symbol>

    <symbol id="check">
        <path d="M22.1421 11L23.5563 12.4142L13.7782 22.1924L12.3639 20.7782L22.1421 11Z" />
        <path d="M15.1924 20.7782L13.7782 22.1924L7.99999 16.4142L9.4142 15L15.1924 20.7782Z" />
    </symbol>

    <symbol id="close">
        <path d="M8.92895 10.3432L10.3432 8.92899L23.0711 21.6569L21.6569 23.0711L8.92895 10.3432Z" />
        <path d="M21.6569 8.92893L23.0711 10.3431L10.3432 23.0711L8.929 21.6568L21.6569 8.92893Z" />
    </symbol>

    <symbol id="search">
        <path fill-rule="evenodd" clip-rule="evenodd" d="M15 20C17.7614 20 20 17.7614 20 15C20 12.2386 17.7614 10 15 10C12.2386 10 10 12.2386 10 15C10 17.7614 12.2386 20 15 20ZM15 22C18.866 22 22 18.866 22 15C22 11.134 18.866 8 15 8C11.134 8 8 11.134 8 15C8 18.866 11.134 22 15 22Z" />
        <path d="M19 20.4142L20.4142 19L24.6569 23.2426L23.2426 24.6568L19 20.4142Z" />
    </symbol>

    <symbol id="time-stamp">
        <path d="M26 20.5C26 21.8807 24.8807 23 23.5 23C22.1193 23 21 21.8807 21 20.5C21 19.1193 22.1193 18 23.5 18C24.8807 18 26 19.1193 26 20.5Z" />
        <path fill-rule="evenodd" clip-rule="evenodd" d="M9.83002 13.5224C7.39113 15.8745 7.3208 19.7584 9.67293 22.1973L8.23334 23.5857C5.11443 20.3517 5.20769 15.2017 8.44164 12.0828C11.1213 9.49846 15.1142 9.12061 18.1785 10.9038L17.1725 12.6324C14.8608 11.2871 11.8491 11.5752 9.83002 13.5224Z" />
        <path d="M21.3131 16.2293L14.0312 14.9165L20.2648 8.90463L21.3131 16.2293Z" />
    </symbol>

    <symbol id="more">
        <path d="M14.5 8.5H17.5V11.5H14.5V8.5Z" />
        <path d="M14.5 14.5H17.5V17.5H14.5V14.5Z" />
        <path d="M14.5 20.5H17.5V23.5H14.5V20.5Z" />
    </symbol>
</svg>